<svg xmlns="http://www.w3.org/2000/svg" viewBox="0 0 200 80">
  <!-- K harfi -->
  <path d="M10 10 L10 70 L25 70 L25 45 L50 70 L70 70 L40 40 L70 10 L50 10 L25 35 L25 10 Z" fill="#1B365D"/>
  
  <!-- < işareti (turuncu) -->
  <path d="M45 25 L75 40 L45 55 L55 55 L85 40 L55 25 Z" fill="#F7941D"/>
  
  <!-- B harfi -->
  <path d="M90 10 L90 70 L130 70 Q150 70 150 55 Q150 42 135 40 Q150 38 150 25 Q150 10 130 10 Z M105 25 L125 25 Q135 25 135 32 Q135 38 125 38 L105 38 Z M105 50 L125 50 Q135 50 135 57 Q135 62 125 62 L105 62 Z" fill="#1B365D"/>
</svg>
